<svg width="25" height="31" viewBox="0 0 25 31" fill="none" xmlns="http://www.w3.org/2000/svg">
<g clip-path="url(#clip0_11_207)">
<path fill-rule="evenodd" clip-rule="evenodd" d="M4.73927 11.705C0.341274 15.9 0.424273 22.981 4.72227 27.278C9.01527 31.571 15.9852 31.571 20.2782 27.278C24.5762 22.981 24.6592 15.9 20.2612 11.705C17.2712 8.854 13.3942 1.053 13.3942 1.053C13.2252 0.714 12.8792 0.5 12.5002 0.5C12.1212 0.5 11.7752 0.714 11.6062 1.053C11.6062 1.053 7.72927 8.853 4.73927 11.705ZM14.7002 14.899L8.70027 22.9C8.36927 23.342 8.45827 23.969 8.90027 24.3C9.34227 24.631 9.96927 24.542 10.3003 24.1L16.3002 16.099C16.6312 15.657 16.5422 15.03 16.1002 14.699C15.6582 14.368 15.0312 14.458 14.7002 14.899ZM15.5002 21C16.3282 21 17.0002 21.672 17.0002 22.5C17.0002 23.328 16.3282 24 15.5002 24C14.6722 24 14.0002 23.328 14.0002 22.5C14.0002 21.672 14.6722 21 15.5002 21ZM9.50027 15C10.3283 15 11.0002 15.672 11.0002 16.5C11.0002 17.328 10.3283 18 9.50027 18C8.67227 18 8.00027 17.328 8.00027 16.5C8.00027 15.672 8.67227 15 9.50027 15Z" fill="white"/>
</g>
<defs>
<clipPath id="clip0_11_207">
<rect width="24" height="30" fill="white" transform="translate(0.5 0.5)"/>
</clipPath>
</defs>
</svg>
