<svg width="17" height="18" viewBox="0 0 17 18" fill="none" xmlns="http://www.w3.org/2000/svg">
<g clip-path="url(#clip0_11_199)">
<path d="M16.5 6.10336C16.5 7.76022 15.1569 9.10336 13.5 9.10336C11.8431 9.10336 10.5 7.76022 10.5 6.10336C10.5 4.83407 12.2606 1.98837 13.0843 0.72641C13.2813 0.42453 13.7187 0.42453 13.9157 0.72641C14.7394 1.98837 16.5 4.83408 16.5 6.10336ZM4.63446 2.00375C3.20331 4.50418 0.5 9.49588 0.5 11.5263C0.5 14.2877 2.73859 16.5263 5.5 16.5263C8.26141 16.5263 10.5 14.2877 10.5 11.5263C10.5 9.49587 7.79669 4.50417 6.36554 2.00375C5.98114 1.33212 5.01886 1.33212 4.63446 2.00375Z" fill="white"/>
</g>
<defs>
<clipPath id="clip0_11_199">
<rect width="16" height="17" fill="white" transform="translate(0.5 0.5)"/>
</clipPath>
</defs>
</svg>
