<svg width="28" height="18" viewBox="0 0 28 18" fill="none" xmlns="http://www.w3.org/2000/svg">
<path d="M13.9993 12C10.0009 12 9.99929 6 13.9993 6C17.9993 6 17.9983 12 13.9993 12ZM27.0032 10.7861C23.6878 15.3711 18.9485 18 13.9993 18C9.05009 18 4.31079 15.3711 0.995387 10.7861C0.618798 10.2667 0.416016 9.64156 0.416016 9C0.416016 8.35844 0.618798 7.7333 0.995387 7.2139C4.31079 2.6289 9.05009 0 13.9993 0C18.9485 0 23.6878 2.6289 27.0032 7.2139C27.3798 7.7333 27.5826 8.35844 27.5826 9C27.5826 9.64156 27.3798 10.2667 27.0032 10.7861ZM13.9983 4C7.39669 4 7.39589 14 13.9983 14C20.8063 14 20.5248 4 13.9983 4Z" fill="white"/>
</svg>
