<svg width="86" height="64" viewBox="0 0 86 64" fill="none" xmlns="http://www.w3.org/2000/svg">
<g clip-path="url(#clip0_11_201)">
<path d="M23.0703 24.78H10.9803C10.2085 24.78 9.46836 24.4734 8.92263 23.9276C8.3769 23.3819 8.07031 22.6417 8.07031 21.87C8.07031 21.0982 8.3769 20.358 8.92263 19.8123C9.46836 19.2666 10.2085 18.96 10.9803 18.96H23.0703C23.8421 18.96 24.5823 19.2666 25.128 19.8123C25.6738 20.358 25.9803 21.0982 25.9803 21.87C25.9803 22.6417 25.6738 23.3819 25.128 23.9276C24.5823 24.4734 23.8421 24.78 23.0703 24.78Z" fill="white"/>
<path d="M53.4997 24.7801H32.8397C32.0679 24.7801 31.3277 24.4735 30.782 23.9278C30.2362 23.3821 29.9297 22.6419 29.9297 21.8701C29.9297 21.0983 30.2362 20.3582 30.782 19.8124C31.3277 19.2667 32.0679 18.9601 32.8397 18.9601H53.4997C62.4997 18.9601 62.4997 14.6101 62.4997 12.9601C62.4997 11.3688 61.8675 9.84271 60.7423 8.71749C59.6171 7.59227 58.091 6.96013 56.4997 6.96013C54.9084 6.96013 53.3822 7.59227 52.257 8.71749C51.1318 9.84271 50.4997 11.3688 50.4997 12.9601C50.4997 13.7319 50.1931 14.4721 49.6473 15.0178C49.1016 15.5635 48.3614 15.8701 47.5897 15.8701C46.8179 15.8701 46.0777 15.5635 45.532 15.0178C44.9862 14.4721 44.6797 13.7319 44.6797 12.9601C44.6797 9.82527 45.925 6.81881 48.1417 4.60213C50.3583 2.38545 53.3648 1.14014 56.4997 1.14014C59.6345 1.14014 62.641 2.38545 64.8577 4.60213C67.0743 6.81881 68.3197 9.82527 68.3197 12.9601C68.3097 16.5001 66.8597 24.7801 53.4997 24.7801Z" fill="white"/>
<path d="M70.5002 59.5002C68.5786 59.4976 66.6763 59.1162 64.9023 58.3778C63.1282 57.6394 61.5171 56.5585 60.1611 55.1969C58.8051 53.8353 57.7308 52.2198 56.9997 50.4427C56.2685 48.6656 55.8949 46.7618 55.9002 44.8402C55.9002 44.0684 56.2068 43.3282 56.7525 42.7825C57.2982 42.2368 58.0384 41.9302 58.8102 41.9302C59.582 41.9302 60.3221 42.2368 60.8679 42.7825C61.4136 43.3282 61.7202 44.0684 61.7202 44.8402C61.6804 46.0188 61.8782 47.1933 62.3018 48.2939C62.7254 49.3945 63.3661 50.3986 64.1858 51.2464C65.0055 52.0942 65.9874 52.7684 67.073 53.2289C68.1587 53.6893 69.3259 53.9266 70.5052 53.9266C71.6845 53.9266 72.8517 53.6893 73.9373 53.2289C75.023 52.7684 76.0049 52.0942 76.8246 51.2464C77.6443 50.3986 78.285 49.3945 78.7086 48.2939C79.1322 47.1933 79.33 46.0188 79.2902 44.8402C79.2902 37.5802 72.8602 36.0602 67.4702 36.0602H4.15023C3.37845 36.0602 2.63828 35.7536 2.09255 35.2079C1.54682 34.6621 1.24023 33.922 1.24023 33.1502C1.24023 32.3784 1.54682 31.6382 2.09255 31.0925C2.63828 30.5468 3.37845 30.2402 4.15023 30.2402H67.5002C76.0202 30.2402 85.1402 34.0802 85.1402 44.8402C85.1455 46.7652 84.7705 48.6722 84.0369 50.4519C83.3033 52.2316 82.2254 53.8489 80.8652 55.211C79.505 56.5731 77.8891 57.6532 76.1104 58.3892C74.3317 59.1253 72.4252 59.5028 70.5002 59.5002Z" fill="white"/>
<path d="M17.02 47.9797H6.61996C5.84818 47.9797 5.10801 47.6731 4.56228 47.1274C4.01655 46.5817 3.70996 45.8415 3.70996 45.0697C3.70996 44.2979 4.01655 43.5578 4.56228 43.012C5.10801 42.4663 5.84818 42.1597 6.61996 42.1597H17.02C17.7917 42.1597 18.5319 42.4663 19.0776 43.012C19.6234 43.5578 19.93 44.2979 19.93 45.0697C19.93 45.8415 19.6234 46.5817 19.0776 47.1274C18.5319 47.6731 17.7917 47.9797 17.02 47.9797Z" fill="white"/>
<path d="M40.8898 62.7297C39.0778 62.7254 37.2987 62.2445 35.7313 61.3353C34.1639 60.426 32.8632 59.1205 31.9598 57.5497C31.6837 56.8963 31.6557 56.1646 31.8812 55.4921C32.1066 54.8195 32.5699 54.2525 33.1841 53.8975C33.7982 53.5426 34.5208 53.4241 35.2161 53.5645C35.9114 53.7049 36.5315 54.0943 36.9598 54.6597C37.4492 55.5152 38.2076 56.1849 39.117 56.5648C40.0264 56.9447 41.0359 57.0133 41.9883 56.7601C42.9408 56.5068 43.7829 55.9459 44.3836 55.1646C44.9843 54.3832 45.3099 53.4253 45.3098 52.4397C45.3098 50.0497 45.3098 47.9797 38.0998 47.9797H27.4198C26.648 47.9797 25.9079 47.6731 25.3621 47.1274C24.8164 46.5817 24.5098 45.8415 24.5098 45.0697C24.5098 44.2979 24.8164 43.5578 25.3621 43.012C25.9079 42.4663 26.648 42.1597 27.4198 42.1597H38.1498C47.0398 42.1597 51.1498 45.4297 51.1498 52.4397C51.1498 55.1636 50.0698 57.7764 48.1466 59.7053C46.2233 61.6341 43.6137 62.7218 40.8898 62.7297Z" fill="white"/>
</g>
<defs>
<clipPath id="clip0_11_201">
<rect width="85" height="63" fill="white" transform="translate(0.5 0.5)"/>
</clipPath>
</defs>
</svg>
