<svg width="28" height="28" viewBox="0 0 28 28" fill="none" xmlns="http://www.w3.org/2000/svg">
<g clip-path="url(#clip0_85_1401)">
<path d="M14 0C11.2311 0 8.52431 0.821086 6.22202 2.35943C3.91973 3.89777 2.12532 6.08427 1.06569 8.64243C0.00606632 11.2006 -0.271181 14.0155 0.269012 16.7313C0.809205 19.447 2.14258 21.9416 4.10051 23.8995C6.05845 25.8574 8.55301 27.1908 11.2687 27.731C13.9845 28.2712 16.7994 27.9939 19.3576 26.9343C21.9157 25.8747 24.1022 24.0803 25.6406 21.778C27.1789 19.4757 28 16.7689 28 14C28 10.287 26.525 6.72601 23.8995 4.1005C21.274 1.475 17.713 0 14 0ZM13 22V11C13 10.7348 13.1054 10.4804 13.2929 10.2929C13.4804 10.1054 13.7348 10 14 10C14.2652 10 14.5196 10.1054 14.7071 10.2929C14.8947 10.4804 15 10.7348 15 11V22C15 22.2652 14.8947 22.5196 14.7071 22.7071C14.5196 22.8946 14.2652 23 14 23C13.7348 23 13.4804 22.8946 13.2929 22.7071C13.1054 22.5196 13 22.2652 13 22ZM14 8C13.7033 8 13.4133 7.91203 13.1667 7.7472C12.92 7.58238 12.7277 7.34811 12.6142 7.07403C12.5007 6.79994 12.471 6.49834 12.5288 6.20736C12.5867 5.91639 12.7296 5.64912 12.9393 5.43934C13.1491 5.22956 13.4164 5.0867 13.7074 5.02882C13.9983 4.97094 14.2999 5.00065 14.574 5.11418C14.8481 5.22771 15.0824 5.41997 15.2472 5.66664C15.412 5.91332 15.5 6.20333 15.5 6.5C15.5 6.89782 15.342 7.27936 15.0607 7.56066C14.7794 7.84196 14.3978 8 14 8Z" fill="white"/>
</g>
<defs>
<clipPath id="clip0_85_1401">
<rect width="28" height="28" fill="white"/>
</clipPath>
</defs>
</svg>
