<svg width="20" height="22" viewBox="0 0 20 22" fill="none" xmlns="http://www.w3.org/2000/svg">
<path d="M19.07 4.23C17.46 4.07 15.85 3.95 14.23 3.86V3.85L14.01 2.55C13.86 1.63 13.64 0.25 11.3 0.25H8.67997C6.34997 0.25 6.12997 1.57 5.96997 2.54L5.75997 3.82C4.82997 3.88 3.89997 3.94 2.96997 4.03L0.929974 4.23C0.509975 4.27 0.209974 4.64 0.249974 5.05C0.289974 5.46 0.649974 5.76 1.06997 5.72L3.10997 5.52C8.34997 5 13.63 5.2 18.93 5.73C18.96 5.73 18.98 5.73 19.01 5.73C19.39 5.73 19.72 5.44 19.76 5.05C19.79 4.64 19.49 4.27 19.07 4.23Z" fill="white"/>
<path d="M17.23 7.14C16.99 6.89 16.66 6.75 16.32 6.75H3.67999C3.33999 6.75 2.99999 6.89 2.76999 7.14C2.53999 7.39 2.40999 7.73 2.42999 8.08L3.04999 18.34C3.15999 19.86 3.29999 21.76 6.78999 21.76H13.21C16.7 21.76 16.84 19.87 16.95 18.34L17.57 8.09C17.59 7.73 17.46 7.39 17.23 7.14ZM11.66 16.75H8.32999C7.91999 16.75 7.57999 16.41 7.57999 16C7.57999 15.59 7.91999 15.25 8.32999 15.25H11.66C12.07 15.25 12.41 15.59 12.41 16C12.41 16.41 12.07 16.75 11.66 16.75ZM12.5 12.75H7.49999C7.08999 12.75 6.74999 12.41 6.74999 12C6.74999 11.59 7.08999 11.25 7.49999 11.25H12.5C12.91 11.25 13.25 11.59 13.25 12C13.25 12.41 12.91 12.75 12.5 12.75Z" fill="white"/>
</svg>
