<svg width="87" height="97" viewBox="0 0 87 97" fill="none" xmlns="http://www.w3.org/2000/svg">
<path d="M0.677679 0.798828V88.4058H44.6227C41.6936 83.949 40.2944 78.66 40.6364 73.3378L11.8684 73.289C11.6975 73.2924 11.5277 73.2617 11.3689 73.1986C11.2101 73.1356 11.0655 73.0414 10.9435 72.9217C10.8216 72.802 10.7248 72.6591 10.6588 72.5015C10.5928 72.3439 10.5589 72.1747 10.5592 72.0038C10.5594 71.8329 10.5938 71.6638 10.6603 71.5064C10.7268 71.349 10.824 71.2064 10.9463 71.0871C11.0686 70.9678 11.2135 70.874 11.3725 70.8115C11.5315 70.7489 11.7015 70.7187 11.8723 70.7226L40.9343 70.7734C41.4 68.0999 42.3055 65.522 43.614 63.1445L11.868 63.0898C11.6971 63.0932 11.5273 63.0625 11.3685 62.9994C11.2097 62.9363 11.0651 62.8422 10.9431 62.7225C10.8212 62.6028 10.7244 62.4599 10.6584 62.3023C10.5924 62.1447 10.5585 61.9755 10.5588 61.8046C10.559 61.6337 10.5934 61.4646 10.6599 61.3072C10.7264 61.1498 10.8236 61.0072 10.9459 60.8879C11.0682 60.7685 11.2131 60.6748 11.3721 60.6122C11.5312 60.5497 11.7011 60.5194 11.8719 60.5234L45.2449 60.582C45.8273 59.7573 46.46 58.9694 47.1394 58.2226C49.1647 56.0567 51.5654 54.2754 54.2253 52.9648L11.8683 52.8925C11.6996 52.8923 11.5327 52.8588 11.377 52.794C11.2213 52.7292 11.0799 52.6344 10.9608 52.515C10.8417 52.3956 10.7474 52.2539 10.6831 52.098C10.6188 51.9421 10.5858 51.775 10.586 51.6064C10.5863 51.4377 10.6198 51.2708 10.6845 51.1151C10.7493 50.9594 10.8441 50.8179 10.9636 50.6989C11.083 50.5798 11.2247 50.4854 11.3806 50.4211C11.5365 50.3568 11.7036 50.3239 11.8722 50.3241L56.1472 50.4003C56.4783 50.3969 56.7979 50.5216 57.0393 50.7484C57.2806 50.9751 57.4249 51.2864 57.4421 51.6171C60.628 50.5695 63.9947 50.1853 67.3347 50.4882V0.799193H0.676697L0.677679 0.798828ZM11.8727 14.6288L56.1457 14.707C56.3165 14.7037 56.4863 14.7345 56.6451 14.7977C56.8038 14.8609 56.9484 14.9552 57.0702 15.075C57.192 15.1948 57.2887 15.3377 57.3546 15.4954C57.4205 15.653 57.4542 15.8223 57.4538 15.9931C57.4534 16.164 57.4189 16.3331 57.3523 16.4905C57.2858 16.6478 57.1884 16.7903 57.066 16.9095C56.9436 17.0288 56.7986 17.1224 56.6396 17.1849C56.4806 17.2473 56.3106 17.2774 56.1398 17.2734L11.8688 17.1952C11.698 17.1987 11.5282 17.1679 11.3693 17.1049C11.2105 17.0418 11.0659 16.9476 10.944 16.8279C10.822 16.7082 10.7252 16.5654 10.6592 16.4077C10.5932 16.2501 10.5593 16.0809 10.5596 15.91C10.5599 15.7392 10.5942 15.57 10.6607 15.4126C10.7272 15.2552 10.8244 15.1126 10.9468 14.9933C11.0691 14.874 11.214 14.7803 11.373 14.7177C11.532 14.6551 11.7018 14.6249 11.8727 14.6288ZM11.8727 40.1268L56.1457 40.203C56.3165 40.1997 56.4863 40.2306 56.6451 40.2938C56.8038 40.357 56.9484 40.4512 57.0702 40.571C57.192 40.6908 57.2887 40.8338 57.3546 40.9914C57.4205 41.1491 57.4542 41.3183 57.4538 41.4892C57.4534 41.6601 57.4189 41.8291 57.3523 41.9865C57.2858 42.1439 57.1884 42.2863 57.066 42.4056C56.9436 42.5248 56.7986 42.6184 56.6396 42.6809C56.4806 42.7434 56.3106 42.7735 56.1398 42.7694L11.8688 42.6932C11.698 42.6967 11.5282 42.6659 11.3693 42.6029C11.2105 42.5398 11.0659 42.4456 10.944 42.3259C10.822 42.2062 10.7252 42.0634 10.6592 41.9057C10.5932 41.7481 10.5593 41.5789 10.5596 41.408C10.5599 41.2372 10.5942 41.068 10.6607 40.9106C10.7272 40.7532 10.8244 40.6106 10.9468 40.4913C11.0691 40.372 11.214 40.2783 11.373 40.2157C11.532 40.1531 11.7018 40.1229 11.8727 40.1268ZM64.6657 53.6698C61.8198 53.733 59.0155 54.3666 56.4189 55.5331C53.8222 56.6996 51.4861 58.3752 49.5487 60.4608C45.7085 64.5956 43.668 70.0864 43.876 75.7256C44.0841 81.3647 46.5236 86.6903 50.6581 90.5308C54.7925 94.3707 60.2827 96.4111 65.9214 96.2035C71.5601 95.9958 76.8853 93.557 80.7261 89.4234C84.5662 85.2893 86.607 79.7992 86.3996 74.1605C86.1923 68.5219 83.7539 63.1964 79.6206 59.3554C75.565 55.5869 70.2005 53.5473 64.6657 53.6698ZM65.359 59.0018C65.5307 58.9992 65.7011 59.0311 65.8602 59.0955C66.0193 59.16 66.1638 59.2557 66.2853 59.3769C66.4067 59.4982 66.5026 59.6426 66.5673 59.8016C66.632 59.9606 66.6641 60.131 66.6617 60.3026V72.2286C67.1423 72.4913 67.5435 72.8782 67.8235 73.3489C68.1035 73.8196 68.252 74.3568 68.2535 74.9044C68.2555 75.7152 67.9354 76.4937 67.3638 77.0686C66.7921 77.6436 66.0155 77.9681 65.2047 77.9708C64.9172 77.9706 64.6312 77.9298 64.3551 77.8497L58.2731 83.9747C58.1556 84.0997 58.0143 84.1998 57.8574 84.2692C57.7006 84.3386 57.5314 84.3758 57.3599 84.3787C57.1884 84.3817 57.0181 84.3502 56.859 84.2861C56.6998 84.2221 56.5552 84.1268 56.4335 84.0059C56.3118 83.885 56.2156 83.741 56.1506 83.5823C56.0855 83.4236 56.0529 83.2535 56.0547 83.082C56.0565 82.9104 56.0927 82.741 56.1611 82.5837C56.2294 82.4264 56.3286 82.2844 56.4528 82.1661L62.4098 76.1661C62.2329 75.7764 62.1398 75.3539 62.1364 74.9259V74.9103C62.1362 74.2922 62.3232 73.6884 62.673 73.1787C63.0227 72.6689 63.5186 72.2771 64.0954 72.0548V60.3028C64.0908 59.9628 64.2212 59.6349 64.4582 59.391C64.6951 59.1471 65.0191 59.007 65.359 59.0018Z" fill="#7F838E"/>
</svg>
