<svg width="83" height="83" viewBox="0 0 83 83" fill="none" xmlns="http://www.w3.org/2000/svg">
<path d="M32.3083 56.0391C33.3317 56.6602 34.5583 56.8477 35.7185 56.5587C36.8787 56.2735 37.8747 55.5353 38.488 54.5118L45.0974 43.5818C45.0974 43.4919 45.1755 43.4021 45.2263 43.3122C45.2771 43.2224 45.3747 43.0232 45.4372 42.863L45.4411 42.8591C45.4919 42.7224 45.5349 42.5818 45.5701 42.4411C45.5701 42.3005 45.6482 42.1599 45.6794 42.0193C45.7107 41.8786 45.6794 41.6794 45.6794 41.5075V41.5114C45.6833 41.4138 45.6833 41.3161 45.6794 41.2185L45.5701 23.6595C45.5544 21.1868 43.5428 19.1907 41.0701 19.1907C39.8787 19.1946 38.7342 19.6751 37.8982 20.5227C37.0583 21.3703 36.5935 22.5149 36.6013 23.7102L36.7028 40.0112L30.7028 49.8628L30.6989 49.8589C30.0895 50.8901 29.9177 52.1245 30.2184 53.2847C30.5192 54.4449 31.2732 55.4375 32.3083 56.0391Z" fill="#7F838E"/>
<path d="M41.2493 0.000240449C32.1477 -0.0310096 23.2962 2.98464 16.1012 8.55884L13.6716 6.12914C12.8786 5.34398 11.6949 5.10574 10.6637 5.53148C9.63255 5.96117 8.96065 6.96508 8.96065 8.07838V20.9304C8.96456 22.4538 10.199 23.6843 11.7185 23.6921H24.5585C25.6757 23.6882 26.6795 23.0163 27.1053 21.9851C27.535 20.9578 27.2968 19.7703 26.5116 18.9812L22.5116 14.9812C27.9647 11.0632 34.5156 8.96168 41.2306 8.98118C49.7853 8.97727 57.9886 12.3679 64.0396 18.4109C70.0943 24.4578 73.4966 32.6569 73.5005 41.2119C73.5044 49.7627 70.1138 57.9699 64.0669 64.0209C58.0239 70.0717 49.8249 73.4779 41.2699 73.4818C32.7152 73.4857 24.5119 70.0951 18.4609 64.0482C12.4062 58.0052 9.0039 49.8062 9 41.2512C9 38.7668 6.9844 36.7512 4.5 36.7512C2.0156 36.7512 0 38.7668 0 41.2512C0 52.1922 4.3477 62.6852 12.082 70.4192C19.8163 78.1532 30.309 82.5012 41.25 82.5012C52.191 82.5012 62.684 78.1535 70.418 70.4192C78.152 62.6849 82.5 52.1922 82.5 41.2512C82.5 30.3102 78.1523 19.8172 70.418 12.0832C62.6837 4.34918 52.191 0.00118077 41.25 0.00118077L41.2493 0.000240449Z" fill="#7F838E"/>
</svg>
