<svg width="37" height="43" viewBox="0 0 37 43" fill="none" xmlns="http://www.w3.org/2000/svg">
<g clip-path="url(#clip0_11_194)">
<path fill-rule="evenodd" clip-rule="evenodd" d="M0.791992 17.9954C0.791992 8.41235 8.80008 0.666748 18.4867 0.666748C28.2006 0.666748 36.2087 8.41235 36.2087 17.9954C36.2087 22.8245 34.4524 27.3077 31.5618 31.1076C28.3728 35.2991 24.4423 38.9511 20.0181 41.8177C19.0056 42.4802 18.0917 42.5302 16.9804 41.8177C12.531 38.9511 8.60051 35.2991 5.43887 31.1076C2.54612 27.3077 0.791992 22.8245 0.791992 17.9954ZM12.6551 18.535C12.6551 21.7454 15.2747 24.2703 18.4868 24.2703C21.7009 24.2703 24.3458 21.7454 24.3458 18.535C24.3458 15.3497 21.7009 12.7019 18.4868 12.7019C15.2747 12.7019 12.6551 15.3497 12.6551 18.535Z" fill="white"/>
</g>
<defs>
<clipPath id="clip0_11_194">
<rect width="37" height="43" fill="white"/>
</clipPath>
</defs>
</svg>
