<svg width="72" height="72" viewBox="0 0 72 72" fill="none" xmlns="http://www.w3.org/2000/svg">
<path d="M32.172 63.648C22.379 63.6441 13.149 59.0855 7.19496 51.316C1.23797 43.5465 -0.765935 33.449 1.77306 23.992C4.31216 14.5389 11.1051 6.80098 20.1521 3.05798C29.199 -0.680319 39.4721 -0.00451851 47.9451 4.89778C56.4217 9.79618 62.1361 18.3588 63.4101 28.0658C64.6796 37.7728 61.3671 47.5228 54.4413 54.4408C48.5351 60.347 40.524 63.6637 32.172 63.648ZM32.172 5.64798C23.9298 5.64798 16.156 9.48388 11.137 16.023C6.12136 22.5621 4.42996 31.062 6.56276 39.023C8.69556 46.9839 14.4105 53.5 22.0278 56.652C29.6411 59.8043 38.2898 59.2379 45.4258 55.1168C52.5664 50.9957 57.3788 43.7848 58.4528 35.6128C59.5268 27.4408 56.738 19.2378 50.9098 13.4098C45.945 8.43318 39.1988 5.64418 32.1718 5.65978L32.172 5.64798Z" fill="white"/>
<path d="M68.84 71.34C68.1759 71.34 67.5431 71.0744 67.0705 70.6095L50.9105 54.4415C50.0277 53.4493 50.0668 51.9454 51.0082 51.0079C51.9457 50.0665 53.4496 50.0274 54.4418 50.9103L70.6098 67.0703C71.3285 67.7851 71.5434 68.8633 71.1527 69.7969C70.766 70.7344 69.8517 71.3439 68.84 71.34Z" fill="white"/>
</svg>
