<svg width="84" height="84" viewBox="0 0 84 84" fill="none" xmlns="http://www.w3.org/2000/svg">
<path d="M33.059 56.7889C34.0824 57.41 35.309 57.5975 36.4692 57.3084C37.6294 57.0233 38.6254 56.285 39.2387 55.2615L45.8481 44.3315C45.8481 44.2417 45.9262 44.1518 45.977 44.062C46.0278 43.9721 46.1255 43.7729 46.188 43.6128L46.1919 43.6089C46.2427 43.4721 46.2856 43.3315 46.3208 43.1909C46.3208 43.0503 46.3989 42.9096 46.4302 42.769C46.4614 42.6284 46.4302 42.4292 46.4302 42.2573V42.2612C46.4341 42.1635 46.4341 42.0659 46.4302 41.9682L46.3208 24.4092C46.3052 21.9365 44.2935 19.9404 41.8208 19.9404C40.6294 19.9443 39.4849 20.4248 38.6489 21.2724C37.809 22.1201 37.3442 23.2646 37.352 24.4599L37.4535 40.7609L31.4535 50.6125L31.4496 50.6086C30.8403 51.6398 30.6684 52.8742 30.9692 54.0344C31.27 55.1946 32.0239 56.1873 33.059 56.7889Z" fill="white"/>
<path d="M42 0.749996C32.8984 0.718746 24.047 3.7344 16.852 9.3086L14.4223 6.8789C13.6293 6.09374 12.4457 5.8555 11.4145 6.28124C10.3833 6.71093 9.71138 7.71484 9.71138 8.82814V21.6801C9.71529 23.2035 10.9497 24.434 12.4692 24.4418H25.3092C26.4264 24.4379 27.4303 23.7661 27.8561 22.7348C28.2858 21.7075 28.0475 20.52 27.2623 19.7309L23.2623 15.7309C28.7154 11.8129 35.2663 9.71144 41.9813 9.73094C50.536 9.72703 58.7393 13.1176 64.7903 19.1606C70.845 25.2075 74.2473 33.4066 74.2512 41.9616C74.2551 50.5124 70.8645 58.7196 64.8176 64.7706C58.7746 70.8214 50.5756 74.2276 42.0206 74.2315C33.4659 74.2354 25.2626 70.8448 19.2116 64.7979C13.1569 58.7549 9.75463 50.5559 9.75073 42.0009C9.75073 39.5165 7.73513 37.5009 5.25073 37.5009C2.76633 37.5009 0.750732 39.5165 0.750732 42.0009C0.750732 52.9419 5.09843 63.4349 12.8327 71.1689C20.567 78.9029 31.0597 83.2509 42.0007 83.2509C52.9417 83.2509 63.4347 78.9032 71.1687 71.1689C78.9027 63.4346 83.2507 52.9419 83.2507 42.0009C83.2507 31.0599 78.903 20.5669 71.1687 12.8329C63.4344 5.09894 52.9417 0.750937 42.0007 0.750937L42 0.749996Z" fill="white"/>
</svg>
